<svg width="21" height="18" viewBox="0 0 21 18" fill="none" xmlns="http://www.w3.org/2000/svg">
<path d="M3.33331 2.42871V6.47633H7.38093" stroke="#94A3B8" stroke-width="1.2" stroke-linecap="round" stroke-linejoin="round"/>
<path d="M3.37379 10.5239C3.5531 12.1477 4.27293 13.664 5.41766 14.8295C6.5624 15.995 8.06561 16.7419 9.68588 16.9504C11.3062 17.1588 12.9495 16.8167 14.3519 15.9789C15.7544 15.1411 16.8345 13.8562 17.419 12.3307C18.0034 10.8052 18.0582 9.12757 17.5746 7.56718C17.0909 6.00679 16.0969 4.65422 14.7521 3.72669C13.4073 2.79917 11.7898 2.35051 10.1594 2.45277C8.52898 2.55504 6.98023 3.20229 5.76189 4.29058L3.33331 6.47629" stroke="#94A3B8" stroke-width="1.2" stroke-linecap="round" stroke-linejoin="round"/>
<path d="M10.619 5.6665V9.71412L13.8571 11.3332" stroke="#94A3B8" stroke-width="1.2" stroke-linecap="round" stroke-linejoin="round"/>
</svg>
