<svg width="19" height="18" viewBox="0 0 19 18" fill="none" xmlns="http://www.w3.org/2000/svg">
<g clip-path="url(#clip0_271_521)">
<path d="M4.51691 0.0667682C3.40245 0.302315 2.52355 1.1531 2.22472 2.28513L2.14386 2.58396V8.99997V15.416L2.22472 15.7148C2.48136 16.6781 3.14581 17.434 4.05988 17.7996C4.56261 18 4.58722 18 8.08878 18C11.5833 18 11.4321 18.007 11.6255 17.8031C11.8962 17.5148 11.8224 17.0683 11.4778 16.8855L11.3267 16.8047H8.14152C4.64347 16.8047 4.73136 16.8082 4.29894 16.5902C3.83488 16.3547 3.44464 15.8168 3.36027 15.2929C3.30753 14.9765 3.30753 3.02341 3.36027 2.707C3.49386 1.86325 4.28136 1.1988 5.14269 1.19528C5.51183 1.19528 5.75089 0.980831 5.77199 0.636299C5.78253 0.481612 5.76847 0.411299 5.70519 0.298799C5.53644 0.00700254 5.16027 -0.0668256 4.51691 0.0667682Z" fill="#94A3B8"/>
<path d="M7.24152 0.0492816C7.11144 0.109047 6.96027 0.26725 6.91105 0.397328C6.8091 0.661 6.93215 0.980922 7.18879 1.11452L7.33996 1.19538H10.5251C14.0232 1.19538 13.9353 1.19186 14.3677 1.40983C14.8318 1.64538 15.222 2.18327 15.3064 2.70709C15.3591 3.0235 15.3591 14.9766 15.3064 15.293C15.1728 16.1368 14.3853 16.8012 13.5239 16.8047C13.1548 16.8047 12.9157 17.0192 12.8946 17.3637C12.8841 17.5184 12.8982 17.5887 12.9614 17.7012C13.1267 17.9895 13.4642 18.0598 14.0829 17.9438C15.229 17.7294 16.1361 16.8715 16.4419 15.7149L16.5228 15.4161V9.00006V2.58405L16.4419 2.28522C16.347 1.92311 16.1677 1.53991 15.9638 1.24811C15.6509 0.812172 15.0954 0.383266 14.6032 0.196938C14.0794 6.28471e-05 14.0689 6.28471e-05 10.5673 6.28471e-05C7.95519 0.00357847 7.3259 0.0106097 7.24152 0.0492816Z" fill="#94A3B8"/>
<path d="M8.77081 2.88612C8.32433 2.97401 7.89542 3.31854 7.68448 3.75799C7.57198 4.00057 7.55792 4.0533 7.55792 4.32752C7.55792 4.60174 7.56495 4.6369 7.65636 4.75643C7.78292 4.92166 7.92003 4.99197 8.12042 4.99197C8.44386 4.99197 8.68644 4.79158 8.72511 4.49276C8.75323 4.27479 8.83058 4.14822 8.96417 4.09197C9.11886 4.02869 9.54777 4.02869 9.69894 4.09197C9.90636 4.17987 9.93097 4.24666 9.93097 4.78455C9.93097 5.21346 9.92394 5.27322 9.85714 5.35408C9.78331 5.44901 9.64269 5.50174 9.36495 5.5369C9.01339 5.57908 8.65128 5.90252 8.5423 6.26463C8.4755 6.48963 8.47198 6.99236 8.53878 7.14705C8.64425 7.40369 8.97472 7.56893 9.22784 7.49158C9.51613 7.40721 9.68488 7.17869 9.68488 6.87635C9.68488 6.72869 9.69191 6.71463 9.78331 6.69705C10.3599 6.58104 10.7325 6.3033 10.9786 5.80408L11.1087 5.54041V4.78455V4.02518L10.9821 3.76151C10.7607 3.30096 10.3423 2.97049 9.86417 2.8826C9.63917 2.84041 8.9923 2.84393 8.77081 2.88612Z" fill="#94A3B8"/>
<path d="M8.79543 8.19504C8.47199 8.36731 8.39465 8.81379 8.64074 9.09504C8.84113 9.32356 9.08722 9.37278 9.35793 9.2427C9.68137 9.08801 9.78683 8.64153 9.56887 8.35676C9.39308 8.12473 9.0591 8.05442 8.79543 8.19504Z" fill="#94A3B8"/>
<path d="M6.64386 10.8422C6.21495 11.0355 6.15167 11.6191 6.52784 11.8898L6.64386 11.9707L9.29112 11.9812C12.2583 11.9918 12.1001 12.0023 12.2759 11.7351C12.4622 11.4539 12.4095 11.1375 12.1353 10.9195L11.9982 10.8105L9.3755 10.8035C7.23096 10.7965 6.72823 10.8035 6.64386 10.8422Z" fill="#94A3B8"/>
<path d="M7.33292 13.2224C7.10792 13.2681 6.93214 13.4614 6.88644 13.704C6.8337 13.9747 7.04113 14.2981 7.31183 14.3755C7.50519 14.4282 11.1614 14.4282 11.3548 14.3755C11.738 14.27 11.9068 13.7989 11.6782 13.4614C11.506 13.2083 11.6044 13.2188 9.41066 13.2083C8.32433 13.2048 7.38917 13.2118 7.33292 13.2224Z" fill="#94A3B8"/>
</g>
<defs>
<clipPath id="clip0_271_521">
<rect width="18" height="18" fill="white" transform="translate(0.333313)"/>
</clipPath>
</defs>
</svg>
