<svg width="20" height="22" viewBox="0 0 20 22" fill="none" xmlns="http://www.w3.org/2000/svg">
<g clip-path="url(#clip0_283_4)">
<path d="M9.55078 0.554522C8.79688 0.730303 8.17969 1.22249 7.88672 1.88655L7.80859 2.06233H6.19922C4.42578 2.06233 4.25781 2.08187 3.82422 2.29671C3.16406 2.62483 2.71094 3.18733 2.53516 3.89827C2.45312 4.21858 2.45312 18.3436 2.53516 18.6639C2.70703 19.3709 3.16797 19.9412 3.82031 20.2655C4.32031 20.5116 4.06641 20.5037 10.1094 20.492L15.6055 20.4803L15.8594 20.3944C16.5625 20.1522 17.1602 19.5819 17.3789 18.9256C17.4258 18.7928 17.4805 18.5076 17.5039 18.2928C17.5273 18.0428 17.5391 15.4373 17.5313 10.9686C17.5156 3.2928 17.5391 3.9178 17.2656 3.36312C17.0313 2.88655 16.6836 2.54671 16.1758 2.29671C15.7422 2.08187 15.5742 2.06233 13.8203 2.06233H12.2305L12.1523 1.88655C11.9844 1.50765 11.6289 1.1014 11.2617 0.863116C10.8008 0.570147 10.0664 0.437335 9.55078 0.554522ZM10.3516 2.14827C10.4453 2.19905 10.5781 2.30452 10.6406 2.38655C10.7617 2.53499 10.7617 2.5428 10.7734 3.08187L10.7891 3.62483H11.5664H12.3438V4.38655V5.14827H10.0195H7.69531V4.38655V3.62483H8.47266H9.25L9.26563 3.08187C9.27734 2.5428 9.27734 2.53499 9.39844 2.38655C9.54688 2.19905 9.8125 2.06233 10.0195 2.06233C10.1094 2.06233 10.2539 2.1014 10.3516 2.14827ZM6.09375 5.1678V6.71077H10.0195H13.9453V5.1678V3.62483H14.6406C15.2852 3.62483 15.3477 3.63265 15.5078 3.71077C15.6016 3.76155 15.7344 3.86702 15.7969 3.94905L15.918 4.1014L15.9258 11.2342L15.9375 18.3709L15.8477 18.5272C15.75 18.6991 15.5664 18.8397 15.3555 18.8983C15.2656 18.9217 13.3516 18.9373 9.94141 18.9373H4.66406L4.49219 18.8475C4.39844 18.8006 4.26563 18.6951 4.20313 18.6131L4.08203 18.4608V11.2811V4.1014L4.20313 3.94905C4.26563 3.86702 4.39844 3.76155 4.49219 3.71077C4.65234 3.63265 4.71484 3.62483 5.37891 3.62483H6.09375V5.1678Z" fill="#A78BFA"/>
<path d="M9.21875 10.6172V11.9844H7.85156H6.48438V12.7656V13.5469H7.85156H9.21875V14.9141V16.2812H10.0195H10.8203V14.9141V13.5469H12.1875H13.5547V12.7656V11.9844H12.1875H10.8203V10.6172V9.25H10.0195H9.21875V10.6172Z" fill="#A78BFA"/>
</g>
<defs>
<clipPath id="clip0_283_4">
<rect width="20" height="21" fill="white" transform="translate(0 0.5)"/>
</clipPath>
</defs>
</svg>
