<svg width="18" height="17" viewBox="0 0 18 17" fill="none" xmlns="http://www.w3.org/2000/svg">
<g clip-path="url(#clip0_116_1723)">
<path d="M12.2698 0.0364208C11.5128 0.13603 10.7757 0.438179 10.1714 0.893061C10.012 1.01259 8.2589 2.7458 5.59269 5.41533C0.930975 10.087 1.08039 9.92763 0.76828 10.595C0.459491 11.2491 0.353241 11.7505 0.353241 12.5175C0.353241 13.155 0.403046 13.4638 0.595624 14.0083C1.04387 15.2833 2.07316 16.3093 3.3382 16.7442C3.88605 16.9302 4.19484 16.98 4.81574 16.98C5.58273 16.98 6.0841 16.8737 6.7382 16.5649C7.4089 16.2528 7.24289 16.4056 11.9478 11.7073C14.873 8.78213 16.3638 7.27138 16.4866 7.10537C16.8486 6.60068 17.1208 5.97314 17.2536 5.329C17.34 4.91064 17.34 4.054 17.2536 3.63564C17.0245 2.52334 16.4136 1.55712 15.5105 0.876459C15.0257 0.511225 14.3218 0.202436 13.7075 0.0829048C13.3755 0.0164986 12.5919 -0.00674438 12.2698 0.0364208ZM13.6478 1.29482C13.9499 1.36787 14.4446 1.59033 14.7003 1.76298C14.9294 1.91904 15.3577 2.34072 15.5237 2.57314C16.0716 3.34345 16.2642 4.34951 16.0384 5.2792C15.9554 5.61455 15.7329 6.09931 15.5171 6.40478C15.4275 6.53095 14.5708 7.41748 13.4784 8.5165L11.5892 10.4091L9.25832 8.0749L6.92414 5.74404L8.80011 3.87138C9.83273 2.84209 10.7724 1.929 10.8919 1.84267C11.2937 1.55048 11.7818 1.3413 12.2765 1.24502C12.6284 1.17861 13.2726 1.20185 13.6478 1.29482ZM8.41828 8.93154L10.7425 11.2558L8.84992 13.145C7.7509 14.2374 6.86437 15.094 6.7382 15.1837C6.43273 15.3995 5.94797 15.622 5.59269 15.7116C5.17101 15.8179 4.46047 15.8179 4.03879 15.7116C3.72004 15.6319 3.31164 15.4526 3.01281 15.2634C2.76379 15.104 2.31887 14.6757 2.13957 14.4233C1.93371 14.1378 1.71125 13.6464 1.6216 13.2944C1.51535 12.8728 1.51535 12.1622 1.6216 11.7405C1.71125 11.3853 1.93371 10.9005 2.14953 10.595C2.28234 10.4058 6.02433 6.60732 6.07746 6.60732C6.08742 6.60732 7.13996 7.65322 8.41828 8.93154Z" fill="#94A3B8"/>
<path d="M12.2798 1.95898C11.7519 2.05527 11.2771 2.2877 10.8986 2.63633C10.7126 2.80566 10.6528 2.92852 10.6528 3.12109C10.6528 3.45645 10.862 3.68887 11.1874 3.71211C11.4032 3.72871 11.5294 3.67891 11.7253 3.50293C12.2068 3.07129 12.9239 2.99824 13.4784 3.33027C13.5747 3.39004 13.7607 3.55273 13.8868 3.69219C14.1325 3.96113 14.2321 4.01758 14.4679 4.01758C14.7833 4.01758 15.0423 3.75195 15.0423 3.42988C15.0423 3.25391 14.9361 3.06133 14.7036 2.80898C14.365 2.43711 13.9167 2.1582 13.4419 2.02539C13.1696 1.9457 12.5388 1.90918 12.2798 1.95898Z" fill="#94A3B8"/>
</g>
<defs>
<clipPath id="clip0_116_1723">
<rect width="17" height="17" fill="white" transform="translate(0.333313)"/>
</clipPath>
</defs>
</svg>
