<svg width="512" height="512" viewBox="0 0 512 512" fill="none" xmlns="http://www.w3.org/2000/svg">
<path d="M83.2 18C59.5 24.2 41 43.9 37 67C36.3 71.6 36 131.6 36.2 274.5L36.5 475.5L38.6 479.5C43.2 488.3 54.2 493.2 63.7 490.7C66.6 489.9 80.9 481.9 99.7 470.7C116.8 460.4 131.3 452 132 452C132.6 452 149.3 461.7 169.2 473.5C205.2 495 205.3 495 211.2 495C214.4 495 218.6 494.3 220.6 493.5C222.5 492.7 239.1 483 257.6 471.9C279.8 458.6 291.8 452 293 452.3C294.1 452.6 308.9 461.3 326.1 471.6C355.7 489.5 357.5 490.4 363.1 490.8C371.1 491.4 376.8 489.1 381.9 483.4C384.1 480.8 386.2 477.1 386.9 474.5C387.7 471.4 388 431.1 388 334.6V199.1L417.8 198.8L447.5 198.5L453.2 195.8C461.2 192.1 468.4 185.1 472.3 177.1L475.5 170.5V118.5V66.5L473.1 59.1C466.5 39 449.5 23.4 428.4 18C420.9 16 416.7 16 255.6 16.1C96.4 16.1 90.2 16.2 83.2 18ZM361.5 49.7C361 50.7 359.7 54 358.6 57C356.5 62.5 356.5 62.5 356 257.1L355.5 451.8L331.6 437.5C318.4 429.6 305.6 422.6 303.1 421.8C297.4 420.2 286.9 420.2 281.4 421.8C279.1 422.5 262.5 431.8 244.6 442.5L212.1 462L182.8 444.4C166.7 434.7 152.2 426 150.5 425C146.2 422.4 137.4 420 132.4 420C122.7 420 118.5 421.8 93.2 437L68.5 451.9L68.2 262.8C68.1 141.9 68.3 72.4 69 70.1C71.4 61 79 53.1 88.3 49.9C93.2 48.2 101.5 48.1 227.9 48C355.4 48 362.2 48.1 361.5 49.7ZM427.4 51.4C433.4 54.3 437.7 58.7 441.2 65.3C443.5 69.5 443.5 69.9 443.8 116.4C444.1 159.3 443.9 163.4 442.4 165.1C440.8 166.9 438.8 167 414.3 167H388V117.7C388 70.4 388.1 68.3 390.1 64C393.4 56.7 399.4 51.4 407 48.9C411.6 47.4 421.7 48.6 427.4 51.4Z" fill="#9E9E9E"/>
<path d="M129.5 138.4C117.5 143.7 117.5 161.2 129.4 167C133.7 169 134.4 169.1 201.8 168.8C269.1 168.5 269.9 168.5 272.7 166.4C274.2 165.3 276.5 162.8 277.8 161C282.4 154.2 279.6 143.4 272 139.1C268.3 137 267.7 137 200.4 137C146.3 137.1 131.9 137.3 129.5 138.4Z" fill="#9E9E9E"/>
<path d="M131.8 223.2C126.8 224.5 121.4 230.6 120.5 235.9C119.6 241.2 123 248.5 127.9 251.7L131.3 254H200.4H269.5L273.1 251.6C282.8 245 282.2 230.6 272 224.6C268.6 222.5 267.1 222.5 202 222.3C160.2 222.2 134.1 222.6 131.8 223.2Z" fill="#9E9E9E"/>
<path d="M129.2 311.7C116.5 317.9 118.2 337.1 131.8 341C134.3 341.8 156.9 342 202.7 341.8C269 341.5 269.9 341.5 272.7 339.4C282.7 331.9 282.5 319.3 272.1 312.3L268.7 310H200.6C139.8 310 132.1 310.2 129.2 311.7Z" fill="#9E9E9E"/>
</svg>
