<svg width="16" height="16" viewBox="0 0 16 16" fill="none" xmlns="http://www.w3.org/2000/svg">
<path d="M1.84415 5.37613H1.33496V1.00165L1.84415 5.37613ZM1.84415 5.37613C2.42495 3.93966 3.46593 2.73649 4.80395 1.95516C6.14198 1.17384 7.70141 0.858524 9.23788 1.05864C10.7743 1.25875 12.201 1.96298 13.2943 3.06096C14.3875 4.15894 15.0856 5.58861 15.2791 7.12593M1.84415 5.37613H5.70945M14.825 10.6255H15.3333V15L14.825 10.6255ZM14.825 10.6255C14.2434 12.0611 13.2021 13.2634 11.8642 14.044C10.5263 14.8246 8.96733 15.1396 7.43133 14.9395C5.89533 14.7395 4.46902 14.0358 3.37569 12.9385C2.28236 11.8413 1.58374 10.4124 1.3892 8.87572M14.825 10.6255H10.9588" stroke="#94A3B8" stroke-width="1.2" stroke-linecap="round" stroke-linejoin="round"/>
</svg>
