<svg width="25" height="24" viewBox="0 0 25 24" fill="none" xmlns="http://www.w3.org/2000/svg">
<path d="M5.45938 1.60761C5.16875 1.69199 4.91094 1.87011 4.69063 2.13261L4.5125 2.34355H3.61719C2.62344 2.34355 2.51563 2.37168 2.32813 2.68105C2.23906 2.83105 2.23438 2.9248 2.23438 6.63261C2.23438 9.74512 2.24844 10.5045 2.30469 10.8514C2.51563 12.1686 3.10156 13.3404 4.02969 14.3248C4.5875 14.9154 5.13125 15.3139 5.86719 15.6795C6.5 15.9936 7.01563 16.167 7.63438 16.2701L7.99531 16.3311L8.02344 16.5889C8.11719 17.4514 8.32344 18.1826 8.66094 18.8529C9.57031 20.6764 11.2391 21.9514 13.2359 22.3451C13.5266 22.4014 13.8734 22.4248 14.3984 22.4248C15.2375 22.4201 15.7766 22.3311 16.5172 22.0732C18.7578 21.2811 20.4031 19.2326 20.7031 16.8654C20.7266 16.6545 20.75 15.8154 20.75 14.9998V13.5232H20.0281H19.3063L19.2875 15.1873C19.2688 16.8045 19.2641 16.8654 19.1469 17.2967C18.7625 18.7123 17.8344 19.8467 16.5359 20.4842C15.7906 20.8498 15.2281 20.9764 14.3281 20.9717C13.7563 20.967 13.5781 20.9482 13.1938 20.8451C12.3266 20.6154 11.6234 20.217 10.9672 19.5795C10.1375 18.7779 9.60781 17.7045 9.48125 16.5889L9.45313 16.3311L9.81875 16.2701C10.7469 16.1107 11.8438 15.642 12.5984 15.0748C13.9531 14.0529 14.8813 12.5154 15.1484 10.8514C15.2047 10.5045 15.2188 9.74512 15.2188 6.63261C15.2188 2.9248 15.2141 2.83105 15.125 2.68105C14.9375 2.37168 14.8297 2.34355 13.8359 2.34355H12.9453L12.725 2.09043C12.3969 1.72011 12.0688 1.57011 11.5859 1.57011C11.2672 1.5748 11.1688 1.59355 10.9391 1.71074C10.6391 1.86074 10.4047 2.09043 10.2406 2.3998C10.1516 2.56855 10.1328 2.67168 10.1328 3.04668C10.1328 3.44043 10.1469 3.52011 10.2594 3.73105C10.3297 3.8623 10.4844 4.05918 10.6063 4.1623C11.2344 4.72011 12.1344 4.66386 12.7016 4.03574L12.9125 3.79668H13.3391H13.7703L13.7563 7.25137C13.7422 10.6545 13.7375 10.7154 13.6391 11.0764C13.0813 13.0404 11.6375 14.4232 9.74375 14.8123C6.95938 15.3795 4.24531 13.5326 3.75781 10.7389C3.70156 10.4201 3.6875 9.74043 3.6875 7.07324V3.79668H4.11406H4.54063L4.75156 4.03574C5.4875 4.85136 6.77656 4.6498 7.22656 3.65136C7.33906 3.39355 7.35313 3.32324 7.33438 2.98105C7.31094 2.55449 7.2125 2.32011 6.94063 2.01543C6.60781 1.64511 5.95625 1.46699 5.45938 1.60761Z" fill="#64748B"/>
<path d="M19.5078 6.98395C18.7625 7.13395 18.0734 7.62145 17.6844 8.26833C17.4031 8.73239 17.3047 9.09333 17.3047 9.65583C17.3047 10.4855 17.5344 11.048 18.1203 11.6246C18.7109 12.2105 19.3484 12.4496 20.1875 12.4074C20.7125 12.3793 21.0922 12.2621 21.4953 11.9996C22.5078 11.3433 22.9719 10.1668 22.6766 8.99958C22.4281 8.0152 21.5984 7.21364 20.6141 7.0027C20.2812 6.93239 19.8078 6.92302 19.5078 6.98395ZM20.4312 8.51208C20.7031 8.60114 21.0078 8.85895 21.1344 9.10739C21.275 9.38395 21.2984 9.83395 21.1953 10.1105C21.0828 10.4058 20.7969 10.7011 20.5062 10.8277C20.3047 10.9121 20.2016 10.9261 19.9484 10.9121C18.875 10.8324 18.3969 9.56208 19.1516 8.81208C19.5031 8.4652 19.9719 8.3527 20.4312 8.51208Z" fill="#64748B"/>
</svg>
